<svg id="Layer_1" data-name="Layer 1" xmlns="http://www.w3.org/2000/svg" viewBox="0 0 566.93 566.93">
  <g>
    <path d="M160.35,153.77a8.09,8.09,0,0,1-3.11-.6,7.67,7.67,0,0,1-2.56-1.69A7.82,7.82,0,0,1,153,149a8.12,8.12,0,0,1-.6-3.16,7.82,7.82,0,0,1,8-8h49.33a40.94,40.94,0,0,0-5.37-14.43A45.44,45.44,0,0,0,194.44,112a45.94,45.94,0,0,0-13.14-7.59,42.67,42.67,0,0,0-15.17-2.74,44,44,0,0,0-14.6,2.4A43.28,43.28,0,0,0,139,111a8.51,8.51,0,0,1-5.48,2.26,8.09,8.09,0,0,1-3.11-.6,7.82,7.82,0,0,1-2.56-1.69,7.81,7.81,0,0,1-2.29-5.68,7.08,7.08,0,0,1,2.11-5.48q17.19-14.06,38.51-14.05a60.14,60.14,0,0,1,60.07,60.1,60,60,0,0,1-60.07,60.1,59,59,0,0,1-37.76-13.37,7.22,7.22,0,0,1-2.48-5.71,7.68,7.68,0,0,1,.64-3.12,7.83,7.83,0,0,1,1.72-2.52,8.91,8.91,0,0,1,2.52-1.69,7.55,7.55,0,0,1,3.08-.64,7.88,7.88,0,0,1,4.65,1.43,43.86,43.86,0,0,0,42.76,7,45.67,45.67,0,0,0,23-19.08,40.92,40.92,0,0,0,5.4-14.39Z" fill="#231f20"/>
    <path d="M312.43,102.23H282.75v96.31a8,8,0,1,1-15.92,0V102.23H237.15a8,8,0,1,1,0-15.93h75.28a8,8,0,1,1,0,15.93Z" fill="#231f20"/>
    <path d="M441.42,146.4q0,24.87-17.66,42.52A60.06,60.06,0,0,1,321.22,146.4,57.83,57.83,0,0,1,338.8,104q17.65-17.65,42.52-17.66T423.76,104A60.21,60.21,0,0,1,437,123.34,59.22,59.22,0,0,1,441.42,146.4Zm-60.1-44.17a43.64,43.64,0,0,0-17,3.23,44.42,44.42,0,0,0-14.24,9.77,41.91,41.91,0,0,0-12.92,31.17,44.18,44.18,0,1,0,75.43-31.17A42.6,42.6,0,0,0,381.32,102.23Z" fill="#231f20"/>
    <path d="M157.05,223.46a30.13,30.13,0,0,1,12.06,2.44,31.22,31.22,0,0,1,16.6,16.6,31.38,31.38,0,0,1-4.62,32,38.83,38.83,0,0,1,8,6.24,37.4,37.4,0,0,1,5.82,7.7,36.06,36.06,0,0,1,3.57,8.79,37.65,37.65,0,0,1,1.2,9.5A35.3,35.3,0,0,1,196.79,321a38,38,0,0,1-7.92,11.76,37.25,37.25,0,0,1-11.72,8,35.37,35.37,0,0,1-14.31,2.93h-29a7.54,7.54,0,0,1-3.08-.63,8.74,8.74,0,0,1-2.52-1.7,8,8,0,0,1-1.73-2.51,7.84,7.84,0,0,1-.63-3.12V231.42a7.84,7.84,0,0,1,.63-3.12,8,8,0,0,1,1.73-2.52,8.91,8.91,0,0,1,2.52-1.69,7.54,7.54,0,0,1,3.08-.63ZM141.8,239.38v30.43h15.25a14.39,14.39,0,0,0,5.9-1.21,15.28,15.28,0,0,0,4.81-3.3,16.32,16.32,0,0,0,3.27-4.85,14.91,14.91,0,0,0,0-11.72,15.86,15.86,0,0,0-8.16-8.15,14.3,14.3,0,0,0-5.82-1.2Zm0,46.35v42h21a20.36,20.36,0,0,0,8.19-1.66,20.74,20.74,0,0,0,6.64-4.5,21.56,21.56,0,0,0,4.47-6.69,20.84,20.84,0,0,0,0-16.3A21,21,0,0,0,171,287.39a20.12,20.12,0,0,0-8.11-1.66Z" fill="#231f20"/>
    <path d="M334.89,283.55a60.14,60.14,0,0,1-60.1,60.1,60,60,0,0,1-60.1-60.1,60.14,60.14,0,0,1,60.1-60.09q24.79,0,42.45,17.65a60.21,60.21,0,0,1,13.26,19.38A59.22,59.22,0,0,1,334.89,283.55Zm-60.1-44.17a43.59,43.59,0,0,0-17,3.23,44.47,44.47,0,0,0-14.24,9.77,41.85,41.85,0,0,0-12.92,31.17A44.19,44.19,0,0,0,306,314.81a44.22,44.22,0,0,0-31.25-75.43Z" fill="#231f20"/>
    <path d="M419,239.38H389.28v96.31a8,8,0,1,1-15.93,0V239.38H343.68a8,8,0,1,1,0-15.92H419a8,8,0,1,1,0,15.92Z" fill="#231f20"/>
    <path d="M160.35,428.1a8.09,8.09,0,0,1-3.11-.6,7.67,7.67,0,0,1-2.56-1.69,7.76,7.76,0,0,1-1.69-2.52,8,8,0,0,1-.6-3.15,7.82,7.82,0,0,1,8-8h49.33a40.94,40.94,0,0,0-5.37-14.43,45.44,45.44,0,0,0-9.87-11.45,45.94,45.94,0,0,0-13.14-7.59A42.67,42.67,0,0,0,166.13,376a44,44,0,0,0-14.6,2.4A43.28,43.28,0,0,0,139,385.28a8.56,8.56,0,0,1-5.48,2.26,7.91,7.91,0,0,1-3.11-.61,7.67,7.67,0,0,1-2.56-1.69,7.82,7.82,0,0,1-1.69-2.51,8.09,8.09,0,0,1-.6-3.16,7.08,7.08,0,0,1,2.11-5.48q17.19-14.05,38.51-14a60.14,60.14,0,0,1,42.5,102.62,57.87,57.87,0,0,1-42.5,17.58,59,59,0,0,1-37.76-13.37,7.23,7.23,0,0,1-2.48-5.71,7.91,7.91,0,0,1,2.36-5.64,8.91,8.91,0,0,1,2.52-1.69,7.55,7.55,0,0,1,3.08-.64,7.88,7.88,0,0,1,4.65,1.43,43.86,43.86,0,0,0,42.76,6.95,45.67,45.67,0,0,0,23-19.08,40.92,40.92,0,0,0,5.4-14.39Z" fill="#231f20"/>
    <path d="M312.43,377H282.75v96.3a8,8,0,1,1-15.92,0V377H237.15a8,8,0,1,1,0-15.93h75.28a8,8,0,1,1,0,15.93Z" fill="#231f20"/>
    <path d="M441.42,420.69q0,24.87-17.66,42.52a60.08,60.08,0,0,1-85-85q17.65-17.65,42.52-17.66t42.44,17.66A60.21,60.21,0,0,1,437,397.63,59.22,59.22,0,0,1,441.42,420.69Zm-60.1-44.17a43.64,43.64,0,0,0-17,3.23,44.42,44.42,0,0,0-14.24,9.77,41.91,41.91,0,0,0-12.92,31.17,44.14,44.14,0,1,0,44.18-44.17Z" fill="#231f20"/>
  </g>
</svg>
